<svg width="current" height="current" viewBox="0 0 12 7" fill="none" xmlns="http://www.w3.org/2000/svg">
<path d="M6 6.70801C5.82682 6.70801 5.67188 6.64193 5.53516 6.50977L0.244141 1.0957C0.184896 1.03646 0.139323 0.970378 0.107422 0.897461C0.0755208 0.819987 0.0595703 0.737956 0.0595703 0.651367C0.0595703 0.532878 0.0869141 0.425781 0.141602 0.330078C0.196289 0.234375 0.269206 0.15918 0.360352 0.104492C0.456055 0.0498047 0.563151 0.0224609 0.681641 0.0224609C0.854818 0.0224609 1.00293 0.0817057 1.12598 0.200195L6.3623 5.55273H5.63086L10.8672 0.200195C10.9948 0.0817057 11.1429 0.0224609 11.3115 0.0224609C11.43 0.0224609 11.5348 0.0498047 11.626 0.104492C11.7217 0.15918 11.7969 0.234375 11.8516 0.330078C11.9062 0.425781 11.9336 0.532878 11.9336 0.651367C11.9336 0.819987 11.8721 0.96582 11.749 1.08887L6.45801 6.50977C6.39876 6.57357 6.32812 6.6237 6.24609 6.66016C6.16862 6.69206 6.08659 6.70801 6 6.70801Z" fill="current"/>
</svg>
